<?xml version="1.0" encoding="UTF-8" standalone="no"?>
<svg
   xmlns:dc="http://purl.org/dc/elements/1.1/"
   xmlns:cc="http://creativecommons.org/ns#"
   xmlns:rdf="http://www.w3.org/1999/02/22-rdf-syntax-ns#"
   xmlns:svg="http://www.w3.org/2000/svg"
   xmlns="http://www.w3.org/2000/svg"
   xmlns:sodipodi="http://sodipodi.sourceforge.net/DTD/sodipodi-0.dtd"
   xmlns:inkscape="http://www.inkscape.org/namespaces/inkscape"
   viewBox="0 0 700 700"
   version="1.1"
   class="_3My78Pdp"
   alt="temu"
   aria-label="temu"
   id="svg6"
   sodipodi:docname="temu-logo.svg"
   width="700"
   height="700"
   style="fill:currentColor;stroke:none;stroke-width:18.9629631"
   inkscape:version="0.92.0 r15299"
   inkscape:export-filename="C:\Users\suitedoalex\sites\temu-logo-0.png"
   inkscape:export-xdpi="561.73712"
   inkscape:export-ydpi="561.73712">
  <metadata
     id="metadata12">
    <rdf:RDF>
      <cc:Work
         rdf:about="">
        <dc:format>image/svg+xml</dc:format>
        <dc:type
           rdf:resource="http://purl.org/dc/dcmitype/StillImage" />
        <dc:title>temu</dc:title>
      </cc:Work>
    </rdf:RDF>
  </metadata>
  <defs
     id="defs10" />
  <sodipodi:namedview
     pagecolor="#ffffff"
     bordercolor="#666666"
     borderopacity="1"
     objecttolerance="10"
     gridtolerance="10"
     guidetolerance="10"
     inkscape:pageopacity="0"
     inkscape:pageshadow="2"
     inkscape:window-width="1920"
     inkscape:window-height="1017"
     id="namedview8"
     showgrid="false"
     inkscape:zoom="0.65186406"
     inkscape:cx="366.57115"
     inkscape:cy="299.31815"
     inkscape:window-x="-8"
     inkscape:window-y="-8"
     inkscape:window-maximized="1"
     inkscape:current-layer="svg6" />
  <title
     id="title2">temu</title>
  <rect
     style="fill:#ffffff;fill-rule:evenodd"
     id="rect4500"
     width="492.43396"
     height="323.6871"
     x="93.577789"
     y="193.75949"
     inkscape:export-filename="C:\Users\suitedoalex\sites\temu-logo-2.png"
     inkscape:export-xdpi="126.45114"
     inkscape:export-ydpi="126.45114" />
  <path
     d="m 497.59654,84.28471 c 65.23518,0 118.11874,52.88359 118.11874,118.11877 v 295.19307 c 0,65.23518 -52.88356,118.11874 -118.11874,118.11874 H 202.40346 c -65.23517,0 -118.118735,-52.88356 -118.118735,-118.11874 V 202.40348 c 0,-65.23518 52.883565,-118.11877 118.118735,-118.11877 z M 364.7389,360.32761 h -7.05807 c -6.2796,0 -11.41746,5.08595 -11.36556,11.36556 v 78.10576 c 0,6.2796 5.08596,11.41746 11.36556,11.41746 6.27959,0 11.41745,-5.08596 11.41745,-11.41746 v -51.27474 l 19.20208,27.09049 c 3.99611,5.60494 12.29971,5.60494 16.34772,0 l 19.20208,-27.09049 v 51.27474 c 0,6.2796 5.08596,11.41746 11.41745,11.41746 6.2796,0 11.41746,-5.08596 11.36556,-11.41746 v -78.10576 c 0,-6.27961 -5.08596,-11.41746 -11.36556,-11.36556 h -7.05805 c -2.69867,0 -5.29354,1.29743 -6.85048,3.52903 l -24.85891,37.36622 -24.9108,-37.36622 c -1.55693,-2.2316 -4.0999,-3.52903 -6.85047,-3.52903 z m 176.55536,0 c -6.27963,0 -11.41747,5.08595 -11.41747,11.36556 v 47.69382 c 0,14.99838 -8.45929,22.67921 -22.36783,22.62731 -13.90852,0 -22.36781,-7.94032 -22.31593,-23.30198 v -47.01915 c 0,-6.27961 -5.08596,-11.41746 -11.41744,-11.36556 -6.27961,0 -11.41746,5.08595 -11.36556,11.36556 v 47.53812 c 0,27.81707 17.02238,41.9851 44.83945,41.9851 27.81706,0 45.46222,-14.01234 45.41033,-42.65977 v -46.86345 c 0,-6.27961 -5.08595,-11.41746 -11.36555,-11.36556 z m -320.1558,0 h -66.5845 c -6.2796,0 -11.41746,5.08595 -11.41746,11.36556 0,6.2796 5.08596,11.41745 11.41746,11.41745 h 21.90074 v 66.58452 c 0,6.2796 5.08596,11.41745 11.36555,11.41745 6.2796,0 11.41746,-5.08596 11.41746,-11.41745 v -66.58452 h 21.90075 c 6.27961,0 11.41746,-5.08596 11.41746,-11.41745 0,-6.27961 -5.08596,-11.41746 -11.41746,-11.36556 z m 98.55338,0 H 257.9857 c -6.27961,0 -11.41745,5.08595 -11.41745,11.36556 v 78.00197 c 0,6.2796 5.08596,11.41745 11.41745,11.41745 h 61.70614 c 6.27961,0 11.41746,-5.08596 11.36557,-11.41745 0,-6.27961 -5.08596,-11.41746 -11.36557,-11.41746 h -50.34058 v -16.19202 h 43.8015 c 6.2796,0 11.41746,-5.08596 11.41746,-11.36556 0,-6.2796 -5.08596,-11.41746 -11.41746,-11.41746 h -43.8015 v -16.19202 h 50.34059 c 6.2796,0 11.41746,-5.08596 11.36556,-11.41745 0,-6.27961 -5.08596,-11.41746 -11.36557,-11.36556 z m -111.32017,-119.0529 -2.1278,0.0519 c -8.87448,0.57088 -14.94648,4.41129 -18.37172,9.60105 -3.99611,-5.96822 -11.46936,-10.17192 -22.73111,-9.54915 l -0.25949,0.36329 c -1.29743,2.07589 -6.1758,11.36554 1.71262,21.48556 1.60882,1.71262 5.55303,6.53909 3.94421,12.7149 l -22.88681,37.00292 c -1.86831,3.01007 -1.03794,6.90238 1.81642,8.92638 5.91631,4.1518 17.80085,9.86053 38.40416,9.86053 20.55142,0 32.43595,-5.70873 38.35227,-9.86053 l 0.77845,-0.67466 c 2.2316,-2.12781 2.69867,-5.55305 1.03796,-8.25172 l -22.8349,-37.00292 0.15569,0.67466 -0.25949,-1.03794 c -1.24554,-5.55305 1.86831,-9.96433 3.58092,-11.93644 l 0.4152,-0.41518 c 7.94032,-10.12002 3.01004,-19.35777 1.7126,-21.48556 l -0.20758,-0.36329 z m 74.10966,17.33377 c -7.83652,-15.56925 -18.00844,-18.21602 -23.0944,-14.16802 -3.89232,3.11385 -12.87059,15.41357 -13.49335,16.24392 -9.91243,14.06423 -9.34155,17.48947 3.37333,25.48168 7.16186,4.51508 12.92248,-1.29743 15.41356,-3.01006 -1.19364,7.42135 -4.82646,19.09829 -10.27571,27.2981 -2.95815,-2.23159 -5.13785,-3.94422 -6.48719,-5.18976 -1.7126,-1.55692 -4.30748,-1.45313 -5.9682,0.15569 -0.77847,0.77847 -1.19365,1.81642 -1.14175,2.95817 0.0519,1.08985 0.51897,2.12779 1.29744,2.85436 13.23386,12.09212 30.61953,18.94259 49.14695,18.99449 18.57931,0 36.06877,-6.85047 49.30263,-18.99449 1.71263,-1.55692 1.76452,-4.1518 0.2076,-5.81253 -1.66073,-1.66071 -4.2556,-1.71261 -5.96821,-0.15569 -1.03794,0.93416 -2.0759,1.81642 -3.16575,2.69867 l -5.81252,-12.97438 c -0.93417,-2.23158 -1.97211,-5.03405 -3.11386,-8.40739 0.57088,-1.40123 1.76453,-2.75057 3.47715,-4.51508 1.24554,-1.24554 2.28348,-2.49108 3.06196,-3.68472 3.84041,-6.07202 1.66072,-9.65295 0.46706,-12.04022 -2.75056,-5.60494 -7.05804,-3.78852 -10.17191,-0.46709 -3.84042,4.04801 -7.57704,5.81253 -13.59715,7.16186 -5.03407,1.14175 -8.92637,0.57087 -12.14401,-1.45313 -4.46319,-2.75057 -11.31366,-12.97438 -11.31367,-12.97438 z m 143.91181,-15.82875 c -16.60721,15.77686 -0.67467,50.08111 -30.87902,64.66431 -3.32145,1.60882 -6.07201,-3.68472 -10.53521,-3.68472 -12.61108,0.10374 -36.69154,11.20987 -37.62569,16.81479 -0.77846,4.61889 9.49725,8.3036 39.80539,8.3555 26.36394,0 34.87514,-40.11677 44.1129,-40.16867 9.23776,0 4.93027,36.38016 3.94422,40.16867 h 9.65292 c -0.83035,-3.78851 -1.45313,-15.20597 -1.40122,-31.3461 0,-16.14012 2.90627,-19.72106 5.24165,-31.91697 2.02401,-10.58709 -13.64904,-19.77295 -22.31594,-22.88681 z m 94.66107,1.29744 h -27.0386 c -17.48946,0 -32.02077,13.54526 -33.2144,30.98282 l -1.97211,27.97277 c -0.93416,13.28576 9.60103,24.54751 22.88681,24.59941 h 51.58612 c 13.33766,0 23.82096,-11.26175 22.93871,-24.59941 l -1.97211,-27.97277 c -1.24554,-17.43756 -15.72494,-30.98282 -33.21442,-30.98282 z m -229.6984,64.35293 c 8.14791,0 14.37561,3.99611 16.6591,11.41746 -5.55303,1.45312 -11.10607,2.17968 -16.76289,2.12779 -8.5112,0 -11.52125,-0.77846 -16.97049,-2.2316 2.17969,-6.53909 9.39345,-11.31365 17.07428,-11.31365 z m 203.90534,-41.15474 v 0.77847 c 0,6.74668 5.50114,12.29971 12.24781,12.29971 6.74668,0 12.29972,-5.50114 12.29972,-12.29971 v -0.77847 c 0,-3.01005 10.89848,-3.01005 10.89848,0 v 0.77847 c 0,12.76679 -10.37951,23.1463 -23.1982,23.1463 -12.76678,0 -23.14628,-10.37951 -23.14628,-23.1463 v -0.77847 c 0,-3.01005 10.84658,-3.01005 10.89847,0 z"
     id="path4"
     inkscape:connector-curvature="0"
     style="fill:#fb7701;fill-opacity:1;stroke-width:9.84130764"
     inkscape:export-filename="C:\Users\suitedoalex\sites\temu-logo-2.png"
     inkscape:export-xdpi="126.45114"
     inkscape:export-ydpi="126.45114" />
</svg>
